<?xml version="1.0" encoding="UTF-8"?>
<svg width="425px" height="62px" viewBox="0 0 425 62" version="1.1" xmlns="http://www.w3.org/2000/svg" xmlns:xlink="http://www.w3.org/1999/xlink">
    <!-- Generator: sketchtool 64 (101010) - https://sketch.com -->
    <title>1FEAF1A9-F357-493A-9190-6E8E05B47567</title>
    <desc>Created with sketchtool.</desc>
    <g id="Page-1" stroke="none" stroke-width="1" fill="none" fill-rule="evenodd">
        <g id="NEW-HOME" transform="translate(-133.000000, -208.000000)" fill="#F0B300">
            <g id="Group-2-Copy" transform="translate(341.000000, 239.500000) rotate(-360.000000) translate(-341.000000, -239.500000) translate(124.000000, 181.000000)">
                <path d="M346.514886,80.5384475 C346.481886,80.5454475 346.453886,80.5534475 346.422886,80.5604475 C346.568886,80.4284475 346.634886,80.3814475 346.514886,80.5384475 L346.514886,80.5384475 Z M342.3105,80.519 C342.3185,80.506 342.3205,80.496 342.3305,80.481 L342.6895,80.507 C342.5545,80.508 342.4275,80.512 342.3105,80.519 L342.3105,80.519 Z M308.378,81.4780678 C308.465,81.4880678 308.544,81.5050678 308.622,81.5210678 C308.468,81.5260678 308.399,81.5090678 308.378,81.4780678 L308.378,81.4780678 Z M266,85.5795 C266.339982,85.5265 266.67815,85.4735 267,85.4205 C266.700816,85.4845 266.377153,85.5425 266,85.5795 L266,85.5795 Z M255.771414,85.3721068 C252.256158,84.4673482 256.611556,84.4441987 254.301166,83.1651902 L251.79777,84.1123896 L252.97851,84.2435699 C252.596756,85.5302949 249.104207,84.1162478 249.41926,85.6865538 C246.876128,84.4789229 246.121135,85.2158478 243.323974,84.0853818 C242.661227,84.6236071 243.688697,84.6390401 244.47775,84.7258506 C243.06001,84.6679769 242.981956,86.1939131 241.125697,85.2717924 C240.183376,85.0653763 240.83335,86.363676 242.498023,86.3463138 C241.076026,86.2884402 239.715053,86.5450135 238.141206,86.3694633 L239.749113,87.3706781 L238.088697,87.3899693 L239.486569,87.9532732 C236.311911,88.1133904 232.673188,87.9089034 231,86.5970998 C233.743234,85.5727356 238.317182,85.9817096 239.90522,84.3168766 C239.296401,83.8384541 237.708363,85.5052163 236.907957,84.0853818 L236.072073,85.0152191 C235.104207,85.3161622 232.870451,85.6826956 232.676026,84.7412836 C234.74374,84.2088457 235.619361,83.5895973 236.544653,82.9607032 L236.584389,83.7497145 C237.161987,81.5389396 239.68667,84.3978997 239.673898,82.0115747 C239.750532,82.0077165 239.824328,82.0038582 239.899544,82 C240.275621,82.2951558 240.785099,82.3240926 241.307349,82.2874393 C241.27187,82.4899972 241.063254,82.6964134 241.009326,82.8025151 C241.923264,83.1401116 242.754891,83.115033 243.558135,82.9491285 C243.58368,83.1864106 243.563811,83.4892829 243.4815,83.8828239 C246.125393,84.0487285 247.970299,82.7484997 250.328941,82.314447 C251.054131,82.6848386 252.182362,82.8700344 251.607603,83.1709776 C252.778409,83.2982997 253.632742,82.9934983 254.407603,82.6076737 C255.324379,84.0583741 257.088393,84.4769938 259,84.6043159 C258.266295,85.0364394 257.4815,85.4550591 255.771414,85.3721068 L255.771414,85.3721068 Z M184.293279,86.979859 L180.62995,86.4420947 C181.251759,86.3635448 181.329134,86.1137966 181.62597,85.9345418 C179.100749,86.734139 178.18351,85.7230614 176.285726,87 C175.081498,86.4843907 178.156781,86.1500504 176.840009,85.9647533 C177.563108,85.8298087 178.259478,85.2537764 178.819388,84.6354481 C178.767336,84.8509567 178.716691,85.0503525 178.668859,85.2094663 L178.917864,84.5287009 C179.180937,84.2265861 179.418688,83.9204431 179.588912,83.6485398 C179.387738,83.6163142 179.21048,83.6002014 179.047291,83.5901309 C179.190785,82.8912387 179.339907,82.1258812 179.493249,81.4128902 L180.452692,81.0946626 C180.172737,81.1591138 179.854799,81.1893253 179.54108,81.1893253 C179.666286,80.6173212 179.794306,80.101712 179.922325,79.7210473 C181.210962,79.7129909 182.28295,79.9224572 183.657401,79 C183.64474,80.9194361 184.338297,81.2134945 183.657401,82.3111782 C183.520941,82.2910373 183.456228,82.2567976 183.418244,82.2124874 C182.657161,83.2517623 181.032297,84.3796576 179.771797,84.6314199 C184.221531,85.2618328 183.074983,84.591138 186.978876,85.0503525 C187.32073,86.1601208 183.387294,86.2346425 184.293279,86.979859 L184.293279,86.979859 Z M175,85.7567153 C176.069916,85.2056792 175.59662,85.3944743 177.813112,85 C178.209747,85.3914045 177.934769,85.4742901 177.36648,85.8257866 C177.463139,85.8457406 177.524801,85.8503454 177.609794,85.8649271 C177.318151,85.9217191 176.94818,85.9693016 176.436553,86 L175,85.7567153 Z M174.436,86.5345 C174.458,86.5095 174.478,86.4875 174.499,86.4655 C174.534,86.4865 174.558,86.5085 174.564,86.5295 C174.515,86.5365 174.482,86.5295 174.436,86.5345 L174.436,86.5345 Z M164.583253,82.1298701 C163.358434,83.2235622 164.498675,83.2305195 161.903373,84 C160.983976,83.5296846 160.340241,82.8395176 160.20241,82.1799629 C159.273614,82.8506494 156.813012,83.1136364 154.108072,83.0649351 L155.268675,82.703154 C154.78,82.6669759 154.368072,82.6711503 154,82.6948052 C154.029759,82.6141002 154.059518,82.5264378 154.084578,82.4234694 L155.696265,81.9489796 C157.047952,81.994898 158.409036,82.0589054 159.782651,82.153525 C159.788916,82.2996289 159.779518,82.4165121 159.918916,82.1827458 C159.901687,82.1730056 159.889157,82.1660482 159.87506,82.1576994 C159.984699,82.1660482 160.092771,82.1702226 160.20241,82.1785714 C160.194578,82.1423933 160.185181,82.1062152 160.180482,82.0714286 C161.54,82.2745826 161.059157,81.7263451 161.337952,81.4897959 C162.368554,81.5983302 163.488434,81.5746753 163.444578,82.1215213 C164.110241,81.7152134 165.455663,81.3589981 166.401687,81 L167,81.7068646 L164.583253,82.1298701 Z M152,84.6365 L152.214612,84.0775 C152.447489,84.1005 152.73242,84.3835 153,84.5865 C152.702283,84.6915 152.469406,84.8225 152.231963,84.9225 C152.290411,84.8205 152.193607,84.7585 152,84.6365 L152,84.6365 Z M107,76.7695 L107.005825,76.7625 C107.120859,76.7285 107.21842,76.6835 107.304332,76.6305 C108.338187,76.4625 108.681835,76.2445 108.429924,76.0455 L108.955588,76.0375 L111,76.9625 L109.341463,76.9495 C108.507099,76.8785 107.696032,76.8075 107,76.7695 L107,76.7695 Z M93.9980183,76.841 C93.9980183,76.841 94.090166,76.738 94.3458013,76.699 C91.9975229,76.702 91.4149121,76.73 90,76.789 C90.0445876,76.575 90.141194,76.379 90.3314342,76.205 L91.4000495,76.19 L91.6958137,76.338 L92.1951945,76.178 L93.4763438,76.159 C93.6948229,76.365 93.4674263,76.53 93.4674263,76.617 C94.2239287,76.458 95.0889274,76.425 96,76.45 C95.3490216,76.569 94.6816943,76.698 93.9980183,76.841 L93.9980183,76.841 Z M47.083727,68.7283624 C47.0813533,68.7113624 47.0813533,68.6983624 47.0781882,68.6823624 L47.0394168,68.7433624 C47.0315042,68.7453624 47.0220091,68.7483624 47.0148879,68.7513624 C46.9840289,68.6403624 47.0038103,68.5573624 47.0497031,68.4903624 C47.0386255,68.3363624 47.0821445,68.2143624 47.338511,68.2573624 L47.288662,68.3333624 C47.3804475,68.3083624 47.4896407,68.2983624 47.6035814,68.2943624 C47.6589692,68.3463624 47.7665799,68.4003624 48,68.4543624 C47.7879437,68.5743624 47.3472148,68.6463624 47.083727,68.7283624 L47.083727,68.7283624 Z M44.4973227,58.7845 C44.3163227,58.5505 43.9633227,58.2365 44.2793227,58.2155 L44.8473227,58.4825 C44.7533227,58.6045 44.6423227,58.7105 44.4973227,58.7845 L44.4973227,58.7845 Z M148,29.3347608 C145.426205,29.5067608 146.099398,30.0427608 143.831325,29.9727608 C143.704819,29.4527608 141.99247,29.9487608 140.579819,29.9817608 L141.576807,29.6197608 L140,29.4287608 C141.662651,28.8307608 147.028614,28.9637608 148,29.3347608 L148,29.3347608 Z M148,33.8555 C147.047307,33.5385 145.22904,33.8555 145,33.1855 C145.890867,33.1605 146.770492,33.1485 147.641686,33.1445 C147.589696,33.1545 147.534895,33.1655 147.498361,33.1705 C147.665574,33.2085 147.919906,33.3565 148,33.8555 L148,33.8555 Z M167,30.1278463 C166.937608,30.3278463 166.660312,30.5118463 166.714385,30.6318463 C165.445754,30.7898463 164.185442,30.9298463 163,30.8878463 C164.236742,30.5918463 165.07279,29.9778463 167,30.1278463 L167,30.1278463 Z M175.900621,30.429 C174.80911,30.51 173.684472,30.59 172.467081,30.666 C172.316356,30.597 172.155694,30.547 172,30.489 C173.412836,30.397 174.946584,30.377 176,30.334 L175.900621,30.429 Z M180,30.348527 C178.718261,30.453527 177.387826,30.554527 176,30.653527 C178.474783,30.369527 179.205217,30.336527 180,30.348527 L180,30.348527 Z M202.717385,30.1788542 C203.476792,30.2838542 203.84345,30.3648542 204,30.4358542 C202.527877,30.7158542 200.999451,30.9518542 199,30.7528542 C199.947542,30.4868542 200.612194,30.1238542 202.717385,30.1788542 L202.717385,30.1788542 Z M209.514425,30 C211.047967,30.3733075 211.919708,30.377176 213,30.4574468 C212.848453,30.5473888 212.767814,30.7088975 212.806743,31 C211.818213,30.3085106 209.139034,31.2717602 209,30.3762089 C209.374001,30.3297872 209.603406,30.229207 209.514425,30 L209.514425,30 Z M222.232103,29.1931528 L220.483438,28.4596414 L222.290752,28.4469216 L220.770509,28.0342331 C224.22308,27.9169278 228.18034,28.0667393 230,29.0277948 C227.016621,29.778266 222.042265,29.4786428 220.315208,30.6969219 C220.977324,31.0474245 222.704381,29.8277321 223.573311,30.8679332 L224.48237,30.1867145 C225.534964,29.9648238 227.965808,29.6977069 228.177253,30.3874055 C227.458032,30.5117774 226.871542,30.6432159 226.37457,30.7788943 L226.451739,30.4806844 L226.113736,30.85804 C224.885195,31.2198491 224.192212,31.6113379 223.267719,32 C223.165855,31.946294 223.111837,31.830402 223.138074,31.5887248 L223.630417,31.2834484 L217.070996,30.9173993 L217,29.9563439 C217.463018,29.7697861 217.986228,29.6637873 218.986347,29.9987434 C220.01116,30.148555 219.305829,29.1973928 217.495429,29.2115259 C219.041909,29.2525121 220.522023,29.0659543 222.232103,29.1931528 L222.232103,29.1931528 Z M230.736683,33.3314767 C230.754683,33.4624767 230.683683,33.5814767 230.423683,33.6624767 C230.354683,33.6744767 230.303683,33.6674767 230.260683,33.6514767 C230.276683,33.6334767 230.276683,33.6214767 230.296683,33.6024767 C230.192683,33.4504767 230.393683,33.3494767 230.736683,33.3314767 L230.736683,33.3314767 Z M245.42,30.527 C245.495,30.492 245.551,30.445 245.588,30.387 L245.644,30.58 C245.549,30.591 245.457,30.601 245.356,30.613 C245.378,30.585 245.394,30.556 245.42,30.527 L245.42,30.527 Z M274,29.1795 C273.950886,29.3745 273.900162,29.5955 273.848633,29.8205 C273.620777,29.8075 273.352663,29.7865 273.012087,29.7515 C272.907418,29.4575 273.503225,29.3105 274,29.1795 L274,29.1795 Z M275.7235,29.4479672 C275.6165,29.5099672 275.4795,29.5539672 275.2765,29.5519672 C275.4415,29.5169672 275.5965,29.4829672 275.7235,29.4479672 L275.7235,29.4479672 Z M279,29.183 C278.972098,29.201 278.938615,29.22 278.912573,29.236 C278.456834,29.291 278.311742,29.382 277.999236,29.452 C278.229895,29.425 278.428932,29.411 278.64099,29.391 C278.209433,29.618 277.991795,29.592 276.228366,29.956 L276.198604,29.956 C275.822852,29.521 276.016308,29.368 276.477627,29.044 L279,29.183 Z M298.385616,30.2185 C298.603425,30.2805 298.808904,30.3465 299,30.4165 L296.821918,30.7685 C296.530137,30.7555 296.260959,30.7655 296,30.7815 C296.260959,30.6225 296.760274,30.4835 298.385616,30.2185 L298.385616,30.2185 Z M308.5915,30.3935 C308.5405,30.4725 308.5965,30.5285 308.7225,30.6065 C308.5725,30.5815 308.4255,30.5525 308.2775,30.5245 C308.3835,30.4785 308.4875,30.4325 308.5915,30.3935 L308.5915,30.3935 Z M345.977845,33.0589888 C345.764845,33.4812734 345.735845,33.5617978 345.593845,33.6638577 C345.443845,33.6423221 345.274845,33.6273408 345.065845,33.6348315 L345.112845,33.9784644 C345.100845,33.9868914 345.093845,33.9906367 345.080845,34 C344.956845,33.5262172 345.041845,33.4222846 345.218845,33 L345.977845,33.0589888 Z M348,33.1999904 L347.964338,33.7269904 C347.535432,33.9229904 347.283872,33.8939904 347.003396,33.8349904 C346.99183,33.6019904 347.009179,33.3599904 347.065082,33.1209904 L348,33.1999904 Z M359.6135,34.404 L359.5705,34.596 C359.5135,34.587 359.4515,34.53 359.3865,34.453 C359.4635,34.437 359.5395,34.42 359.6135,34.404 L359.6135,34.404 Z M412.906,47.4354716 C412.739,47.6324716 412.447,47.5964716 412.094,47.4304716 C412.385,47.4494716 412.646,47.4504716 412.906,47.4354716 L412.906,47.4354716 Z M128.841284,77.8835 L128.955417,77.7845 L125,77.8945 L125.827463,77.1055 L129,77.7045 L129,77.8465 C128.944717,77.8595 128.896567,77.8705 128.841284,77.8835 L128.841284,77.8835 Z M51.7015,70.5445 C51.5565,70.5255 51.4235,70.4945 51.2985,70.4555 C51.4265,70.4785 51.5625,70.5105 51.7015,70.5445 L51.7015,70.5445 Z M401.515,43.5415 L401.423,43.4585 C401.476,43.4615 401.528,43.4625 401.577,43.4635 C401.575,43.5045 401.56,43.5355 401.515,43.5415 L401.515,43.5415 Z M410.25,47.391 C410.453,47.422 410.619,47.445 410.75,47.46 C410.694,47.515 410.623,47.563 410.56,47.609 C410.458,47.54 410.354,47.467 410.25,47.391 L410.25,47.391 Z M124.9745,77.542 L124.3565,77.722 C124.3825,77.319 124.1165,77.386 124.0255,77.278 C124.3165,77.331 124.6365,77.424 124.9745,77.542 L124.9745,77.542 Z M415.511233,58.195 C415.598233,58.432 415.815233,58.782 415.638233,58.805 L415.294233,58.496 C415.350233,58.368 415.419233,58.262 415.511233,58.195 L415.511233,58.195 Z M216.2295,30.6 C216.4415,30.558 216.6085,30.479 216.7705,30.4 C216.6285,30.546 216.4395,30.597 216.2295,30.6 L216.2295,30.6 Z M433.289298,69.1551973 C433.289298,69.1551973 431.270903,68.1285768 429.008027,66.8535804 C428.917057,66.7128341 428.834615,66.5787111 428.764967,66.4512114 C430.250334,66.9661775 429.157274,66.2193939 428.864465,65.5818957 L428.764967,66.0538099 C427.876589,65.5918307 427.876589,64.3946588 427.431689,64.0634909 C427.431689,64.1595295 427.444482,64.2754383 427.457274,64.3946588 L427.51413,64.2340423 C427.556773,64.4459898 427.531187,64.5917037 427.484281,64.7125799 C427.495652,64.9675792 427.45301,65.1679358 427.211371,65.0967347 L427.258278,64.9725467 C426.88587,65.1464099 426.244816,64.9576442 425.966221,64.8731964 L425.960535,63.8747252 C425.633612,64.8168978 424.543395,64.1115102 423.419064,63.154435 C426.101254,63.6346284 424.070067,62.8994357 423.519983,62.2702167 L423.332358,62.7421309 C423.046656,62.6643065 422.823495,62.5599886 422.621656,62.4473915 C422.279097,62.1360937 421.953595,61.8380426 421.659365,61.5830433 C421.389298,61.2286936 421.177508,60.9008374 420.795151,60.7518118 C420.795151,60.8147337 420.813629,60.8925582 420.827843,60.967071 C420.758194,60.93561 420.695652,60.9124283 420.644482,60.9091166 C419.878344,59.82123 418.951589,60.8362597 417.999247,60.7319418 L417.997826,60.5630461 C417.96087,60.6193447 417.901171,60.6508056 417.852843,60.6955133 C417.750502,60.6723316 417.646739,60.647494 417.544398,60.5895396 C415.86714,60.2848651 416.5551,59.2516213 415.879933,58.4104548 C416.066137,58.4667533 416.285033,58.5892855 416.559365,58.8244147 C415.891304,56.9301343 417.439214,57.6885088 417.220318,56.7231543 C417.309866,56.9582835 417.513127,57.3076657 417.676589,57.6322102 C418.729849,57.4119836 420.715552,56.8821149 421.207358,55.9084813 C421.207358,55.9084813 420.040385,54.7791988 418.782441,53.4197545 C419.55,53.1895928 420.186789,52.919691 420.496656,52.5968023 C420.496656,52.5968023 418.478261,51.5701818 416.215385,50.2951854 C416.124415,50.154439 416.041973,50.020316 415.972324,49.8928164 C417.457692,50.4077825 416.364632,49.6609988 416.071823,49.0235006 L415.972324,49.4954149 C415.083946,49.0334357 415.083946,47.8362637 414.639047,47.5050958 C414.639047,47.6011345 414.651839,47.7170433 414.664632,47.8362637 L414.721488,47.6756473 C414.76413,47.8875947 414.738545,48.0333086 414.691639,48.1541849 C414.70301,48.4091842 414.660368,48.6095408 414.418729,48.5383397 L414.465635,48.4141517 C414.093227,48.5880148 413.452174,48.3992491 413.173579,48.3148013 L413.169314,47.5216542 C413.443645,47.4968166 413.719398,47.4554206 414.010786,47.3775962 C413.069816,47.1971097 414.279431,46.874221 412.791221,46.5579556 C413.362625,46.2599045 414.873579,46.1439957 414.81388,45.8757497 C414.329181,46.0015935 413.995151,46.2334111 413.147993,45.8906523 C414.748495,45.6041921 416.415803,45.5859778 418.056104,46.0082169 C417.996405,46.1340607 417.834365,46.2565928 417.646739,46.3725016 C419.778846,45.4369523 422.979849,45.6803607 424.408361,44.59413 L423.777258,44.377215 C423.262709,44.6769219 422.217977,44.7100387 421.802926,44.4318577 C423.403428,44.1470533 420.667224,43.4449773 422.358696,42.9929332 C424.688378,42.5127397 426.756522,43.6767949 428.027258,42.4812788 C425.81413,42.3604025 422.826338,41.7195926 421.92801,42.2494612 L423.356522,42.2974806 L420.094398,43.7430285 C419.969314,43.2048806 417.217475,44.0824756 417.271488,43.2098481 C418.394398,43.0541992 419.419231,43.0641343 420.297659,42.9747189 C420.088712,42.6004992 417.292809,42.7727065 416.111622,42.6601094 L417.599833,42.9763748 C414.941806,43.6883858 411.547492,43.4516007 408.970485,43.9947161 C410.997408,43.3091985 406.3949,43.396958 408.019565,42.675012 C408.680518,42.2130328 409.749415,42.9266996 409.442391,42.726343 C409.645652,41.9514101 407.867475,42.5706941 407.345819,41.9961178 C407.07291,42.499493 404.440468,42.7727065 405.992642,43.3588737 C405.470987,43.1469262 404.569816,43.3588737 403.68286,43.4317306 C403.489548,43.1022186 403.483863,42.6998496 403.341722,42.2974806 C406.053763,41.467905 408.758696,40.6151476 410.147408,40.2442396 L409.476505,40.7062188 C411.531856,39.5835596 413.604264,40.7492706 415.717893,39.899825 C415.629766,40.0670648 415.389548,40.1316425 415.783278,40.1664151 C418.394398,40.3303432 419.432023,38.7606074 421.528595,39.4891768 L421.267057,39.9875845 C421.444732,39.9279742 422.684197,39.517326 422.438294,38.960964 C420.680017,39.1447622 420.347408,39.3749238 418.775334,39.2242425 C419.419231,38.7705424 420.820736,38.3913552 421.851254,38.3880435 L421.964967,37.5104486 C423.289716,36.5831784 424.637207,37.9426227 425.956271,37.0170084 L424.408361,36.4275295 C424.452425,36.3894452 424.574666,36.3679193 424.672742,36.3381142 C423.97199,36.4275295 423.367893,36.5434383 423.20301,36.7520741 C420.871906,37.2289558 419.675084,35.9738295 419.299833,35.5002594 C418.208194,35.2171109 419.69214,34.3941586 419.55995,33.8543549 C417.807358,34.0381531 417.908278,35.0134426 416.151421,35.1955849 C415.689465,35.0796762 415.850084,34.9025013 416.057609,34.8064627 L414.883528,35.2518835 C414.818144,34.9803258 411.811873,34.7816251 413.591472,34.1606852 C413.857274,34.1871787 414.34908,34.1606852 414.730017,34.1987696 C412.278094,33.5662389 408.039465,32.8707863 408.173077,31.8872176 C406.835535,31.6686468 407.207943,32.1471844 405.078679,31.8541008 C404.090803,32.5495534 405.156856,33.2665319 402.831438,33.7450695 L404.66505,34.0927958 C405.043144,33.9586728 405.357274,33.7864655 405.769482,33.6755243 L403.859114,33.7583162 C405.065886,33.4337717 404.851254,33.0612078 405.206605,32.3922487 C408.144649,32.3243592 408.952007,33.5397454 410.441639,33.8609783 C409.529097,34.3891911 407.955602,34.2368539 408.542642,35.0829879 C407.07291,34.3295809 406.913712,35.8082456 405.206605,35.1144488 L405.53495,34.885943 C404.150502,35.5416554 403.960033,34.7336057 402.815803,35.3263963 C402.902508,35.1591565 402.748997,35.0564944 402.602592,34.9538324 C400.115134,35.3313638 403.355936,35.4671426 400.861371,36.2834715 C398.648244,36.1559718 400.14214,34.8942221 399.532358,34.4852298 C403.246488,33.3476681 399.457023,33.0711429 403.475334,32.1405611 C403.459699,30.9980318 401.883361,30.8456946 399.735619,30.9914084 C401.135702,31.4765694 398.844398,32.6638063 400.705017,33.4569535 C397.494064,34.0282181 397.762709,36.2486989 394.173662,35.2038641 L394.261789,35.0349685 L392.786371,35.8612324 L390.753763,35.400909 C392.013127,34.2020812 393.56388,34.7915601 394.554599,34.0961075 C392.081355,32.893968 391.234197,35.2750652 388.381438,35.1757149 C386.007692,33.8063356 391.285368,34.3958145 391.272575,33.254941 C390.699749,33.554648 389.143311,32.9651691 389.328094,32.6306895 C391.997492,33.0612078 390.952759,31.9103994 393.929181,32.5429301 C392.477926,32.9320523 394.15092,32.9154939 393.879431,33.420525 C394.304431,33.018156 397.090385,32.8442928 399.060452,33.0363702 C399.509615,32.1985154 397.353344,32.3442293 396.109615,31.9633862 C393.754348,32.8790655 391.313796,31.2381285 389.502926,32.2945541 C386.961455,32.4038395 389.312458,31.4881603 389.158946,31.3854982 C386.876171,30.9914084 388.168227,32.0809508 387.44189,32.2746841 C383.994983,32.9088706 383.609783,31.2911154 381.152174,31.233161 C379.108194,32.357476 374.130435,31.9683537 370.645151,31.8971526 C371.065886,31.4997512 370.60393,31.191765 370.393562,30.8175453 C368.318311,32.3806578 369.064548,31.7448154 366.470485,32.7283841 L368.665134,33.2880578 C366.905435,33.471856 365.489716,34.5663659 363.875,33.7069852 C365.381689,34.7170473 363.367559,34.8246769 361.586538,34.9703908 C361.074833,34.720359 360.598662,34.4090612 360.159448,34.049744 C361.523997,33.6357841 362.744983,33.2234801 364.622659,33.0777662 C362.381104,32.4667614 360.996656,33.0761104 359.617893,33.5314662 C359.487124,33.3956874 359.332191,33.2897137 359.212793,33.1406881 L359.10903,33.6904268 C358.838963,33.7665954 358.564632,33.8295173 358.281773,33.8709133 C358.048662,33.5099403 357.831187,33.3013045 357.69189,33.8974068 C357.183027,33.9106535 356.645736,33.8659458 356.024582,33.6606217 L357.252676,34.7038006 L356.671321,35.1310072 C356.466639,35.0896112 356.290385,35.1674357 356.118395,35.2502276 C355.750251,35.22539 355.423328,35.132663 355.158946,34.8942221 L355.403428,34.8296444 L354.890301,34.7981835 C354.886037,34.6061061 354.894565,34.4305871 354.824916,34.7286382 C354.843395,34.7567875 354.85903,34.7750017 354.874666,34.7981835 L352.792308,34.669028 L353.109281,33.2946812 C351.315468,32.7697801 349.109448,33.7881214 349.727759,34.1987696 C347.844398,33.8444199 348.954515,33.6854593 348.681605,33.0446494 C349.743395,32.6174428 352.029013,31.4335176 352.68286,32.5495534 C352.529348,32.4468914 352.132776,32.4088071 352.041806,32.5760468 C356.944231,33.2019542 353.640886,30.9086165 356.087124,30.5575785 C354.812124,30.459884 353.861204,29.7958923 352.498077,30.160177 C351.866973,30.1899821 349.294231,30.7330975 347.996488,31.223226 C349.77893,30.6022862 350.694314,31.2166026 352.092977,31.7034194 C350.907525,31.5891665 350.714214,32.3607877 349.69791,31.9120552 L350.029097,31.6802377 L348.734197,32.172022 C348.621906,31.7050753 347.466304,31.6636793 346.876421,31.5295563 C346.892057,31.4881603 346.897742,31.4434526 346.914799,31.4020566 C346.893478,31.450076 346.882107,31.4798811 346.863629,31.5262446 C346.44005,31.4268942 346.324916,31.2795245 347.149331,30.8788113 C345.584365,31.0410836 346.312124,31.4931278 345.372575,31.7911789 C344.609281,31.2348168 344.876505,32.7018906 344.16296,32.6555271 C344.124582,32.925429 344.084783,33.2267918 344.046405,33.5347779 L343.196405,33.2234801 C343.475,33.86429 341.743729,33.6109465 341.260452,33.740102 C340.01388,33.3576031 340.821237,31.8541008 338.704766,32.7052023 L338.856856,32.8078644 C337.645819,33.1324089 336.92801,33.3261421 335.193896,33.0711429 C335.287709,32.9055589 335.765301,32.7747476 336.002676,32.7118257 C333.961538,32.2928983 330.902676,33.2499735 329.316388,32.7217607 C329.366137,32.5363067 329.45995,32.3558202 329.666054,32.1918921 L329.212625,32.6952673 C328.956773,32.5959169 328.735033,32.4634498 328.578679,32.2614373 C328.774833,31.4931278 329.785452,31.9402045 329.838043,31.0659212 C333.576338,32.213418 332.457692,29.6485226 336.862625,30.3307285 C337.065886,32.2862749 340.576756,29.1931667 341.415385,31.1205639 C339.685535,30.8672205 337.391388,32.0511457 337.69699,32.2581257 C339.288963,32.1488402 341.519147,32.1074443 342.629264,32.3094567 C341.652759,31.6703026 341.965468,30.594007 342.674749,29.9250478 C340.102007,30.4665073 335.425585,29.1434915 331.783946,28.9696284 L332.19189,30.1469303 C329.046321,30.9914084 332.574247,29.045797 330.119482,28.9828751 L329.03495,29.8472233 L328.880017,29.7445613 L327.077676,30.8009869 C328.351254,30.748 327.765635,29.901866 329.165719,30.387027 C330.41087,30.7695259 329.113127,31.2596544 328.756355,31.9302694 C327.906355,31.5825431 324.87592,31.8226399 326.746488,31.0344603 L323.424666,32.2084505 C323.447408,31.7713088 324.173746,31.5759198 324.510619,31.3474139 L322.112709,31.5543939 L322.199415,31.3888099 C320.51505,31.8391983 318.250753,31.9021202 316.718478,32.4584822 C316.360284,32.3790019 315.982191,32.2928983 315.578512,32.2001713 L316.149916,32.8658188 C315.321237,33.1141947 314.496823,33.3542914 313.909783,33.2234801 C313.948161,32.574391 314.462709,31.8143607 315.773244,31.3888099 C316.448411,32.06936 318.169732,31.1801741 319.439047,31.1271873 C317.801589,30.7049482 317.292726,31.2695895 316.01204,31.3242322 C316.917475,30.7976752 314.310619,30.6354029 314.337625,30.1982613 C314.508194,29.8621259 315.044064,28.860343 316.688629,29.2809262 C319.143395,29.3388806 316.944482,30.3572219 317.669398,30.1634887 C318.320401,31.2811803 321.093562,29.9664438 322.581773,30.284365 C322.738127,30.387027 322.250585,30.5161825 322.008946,30.5807602 C323.289632,30.5261175 325.983194,30.5228059 326.180769,29.7495288 L322.978344,30.3224493 C322.281856,30.0806967 323.967642,29.6253408 322.966973,29.1782642 C322.237793,29.3703416 321.36505,29.4630686 320.418395,29.2875496 L320.59607,28.95307 C318.654431,28.3271627 315.619732,28.5639477 313.383863,28.8769014 C312.988712,30.2297223 312.175669,31.1718949 311.36689,32.4088071 C310.570903,32.3260151 309.780602,32.2183855 309.005936,32.0809508 C310.589381,31.8325749 311.386789,30.9417333 310.526839,30.3572219 L309.944064,30.655273 L308.727341,29.8339766 C308.400418,30.9582916 306.507107,30.8374154 304.730351,30.9185515 C304.417642,30.7960194 304.12199,30.6585847 303.832023,30.5194942 C304.768729,29.8902752 305.719649,29.3289456 306.969064,30.0210865 L306.781438,29.2097251 C308.292391,29.0921605 309.516221,29.9118011 310.354849,29.1136864 L308.595151,29.2974846 L308.625,28.860343 C307.378428,28.9133299 305.789298,29.5988474 304.639381,29.1136864 C304.120569,29.3902116 303.61597,29.747873 302.886789,30.0061839 C302.78587,29.9449179 302.673579,29.891931 302.576923,29.8290091 L302.467475,30.1336836 C301.942977,30.2727741 301.296237,30.3505985 300.487458,30.3307285 C300.319732,30.2330339 300.161957,30.1850146 300.019816,30.2247547 L300.062458,30.1469303 C298.228846,31.6404975 294.95393,29.2229718 293.56806,29.8786843 C292.767809,31.3838424 296.54306,30.5145267 297.458445,31.130499 C296.317057,31.7232895 295.09607,30.9036489 296.075418,31.7878672 C295.639047,31.903776 295.310702,31.9435162 295.043478,31.9385486 C294.904181,31.8789384 294.760619,31.801114 294.607107,31.6951402 L294.607107,31.6951402 C294.604264,31.6901727 294.6,31.6901727 294.6,31.6901727 C294.520401,31.6338742 294.436538,31.5759198 294.355518,31.5063745 C294.355518,31.5543939 294.362625,31.5957899 294.368311,31.63553 C294.243227,31.6024132 294.138043,31.5808873 294.035702,31.5593614 C293.681773,31.264622 293.414548,30.9897526 292.284532,31.5163096 L293.080518,31.759718 C293.046405,31.8839059 293.047826,32.0296198 293.00092,32.1488402 C292.752174,32.2332881 292.487793,32.2895866 292.21204,32.3260151 C292.007358,32.2912424 291.761455,32.2349439 291.440217,32.1372494 C290.979682,31.5957899 290.718144,32.0528016 290.405435,32.6224103 C290.226338,32.6836764 290.054348,32.7581892 289.902258,32.8658188 C289.875251,33.059552 289.936371,33.1638699 290.03587,33.235071 C289.771488,33.605979 289.43888,33.8825042 288.952759,33.7632838 L287.507191,31.5245888 C284.898913,30.2413131 284.452592,32.4849757 280.674498,32.4932549 C279.830184,32.120691 279.201923,31.5047187 278.879264,30.7877402 C279.086789,30.7248183 279.292893,30.6701756 279.487625,30.6387146 C279.233194,30.6105654 279.001505,30.5857278 278.782609,30.562546 C278.650418,30.1833588 278.600669,29.7793339 278.658946,29.3670299 C280.458445,29.1252773 281.382358,29.5839449 283.011288,28.6931032 C284.226589,29.1153423 281.119398,29.3918675 282.451254,29.5442047 C281.322659,29.7147562 280.215385,30.7397208 279.673829,31.4484201 C282.58913,31.8127048 281.329766,30.2893325 283.811538,29.9118011 L285.66505,30.7049482 C286.786538,30.5492993 285.299749,30.2280664 285.232943,29.9631321 C286.597492,29.7379379 287.114883,30.3174818 288.146823,30.3290726 C287.844064,30.1220927 287.147575,29.8786843 287.320987,29.5442047 C289.032358,30.2363456 290.718144,29.7859573 292.305853,31.0758563 C291.389047,30.4615398 293.352007,29.5077762 294.081187,29.3123872 L290.817642,28.0357349 C286.671405,28.4298247 284.088712,27.8320667 279.612709,28.4563182 L279.87709,27.9545988 C272.826923,26.4014213 274.025167,30.3804037 267.994147,30.418488 C267.829264,29.1732967 265.205351,30.5906953 265.432776,29.3835883 C267.253595,29.4663803 266.88403,28.9961218 266.365217,28.4182338 C265.309114,28.8437846 264.621154,29.7445613 262.58286,29.2875496 C263.334783,28.6566747 261.542391,28.1317736 263.539465,27.8867094 C260.779097,27.621775 259.262458,27.7376838 257.852425,28.8305379 C253.346572,29.8968985 256.503512,27.4760612 252.027508,28.1019685 L252.684197,27.6333659 L249.898244,27.8072291 L250.81505,28.4248572 L247.518813,29.1617058 C245.493311,29.8455675 248.344649,29.943262 248.081689,30.4466372 L248.763963,29.5442047 C250.095819,29.7594638 251.974916,28.9745959 252.253512,29.61375 C250.077341,29.7495288 250.597575,30.459884 249.733361,30.8192011 L251.807191,30.4516048 L252.482358,31.130499 C254.541973,31.150369 256.126839,31.3027063 257.354933,30.5410201 C256.503512,30.1982613 255.966221,31.2000442 255.205769,30.6883898 C256.217809,29.5557956 258.769231,29.4498219 261.248161,29.0706346 C261.313545,29.3388806 262.101003,29.4167051 261.766973,29.6468668 C261.715803,29.7495288 261.282274,29.7395938 261.040635,29.6948861 C261.228261,30.1982613 259.843813,30.5228059 262.176338,30.8274803 C261.457107,31.5129979 260.07408,32.584326 259.737207,33.0463053 C257.242642,31.7828997 255.063629,32.6853322 252.503679,33.327798 C251.973495,33.3476681 251.57408,33.2714994 251.500167,32.9684808 C250.847742,33.1456556 249.164799,33.3642264 250.343144,33.7417579 C250.08587,33.771563 249.825753,33.7947447 249.558528,33.8063356 L250.083027,32.6472479 C248.721321,31.4964395 249.709197,34.4322429 248.085953,33.8560108 L248.004933,32.4319888 C247.649582,32.8972797 247.356773,33.1059155 247.102341,33.1473115 C246.587793,32.5760468 246.034866,32.181957 248.179766,31.4202709 C248.081689,31.4467643 247.146405,31.5792315 245.622659,31.7845556 C245.541639,31.6818935 245.457776,31.584199 245.369649,31.4980953 C245.683779,31.5163096 245.884197,31.4964395 245.941054,31.7365362 C247.112291,30.7049482 245.388127,30.4482931 243.560201,30.3638453 L243.126672,31.1785183 C242.885033,31.1073172 242.660452,31.0311486 242.442977,30.9533241 C242.495569,30.4151763 242.695987,29.8737168 242.82107,29.4647244 L241.676839,30.6751431 C241.57592,30.6387146 241.472157,30.603942 241.369816,30.5708252 L241.158027,29.2875496 C240.417475,30.6850781 240.214214,29.8853076 239.470819,29.7445613 L241.116806,28.72622 L241.716639,27.9910273 L238.573913,28.8305379 C238.993227,28.4331364 237.47801,28.5523568 238.138963,28.0887218 C237.900167,28.1516437 236.777258,28.3106043 237.08286,28.5142725 L237.723913,28.4894349 C236.066555,29.6468668 237.070067,30.0922876 234.322492,30.97485 C235.473829,31.4384851 236.187375,31.2977387 236.808528,30.9996876 L236.770151,31.4169592 L234.258528,32.9701366 C233.819314,32.7797151 233.392893,32.5992286 232.858445,32.8724421 L233.766722,32.1571194 C232.788796,32.4220538 232.238712,32.347541 231.808027,32.1471844 C231.970067,31.7001077 231.900418,31.2000442 230.93102,30.7397208 C232.106522,30.8490062 232.260033,30.9500124 233.074498,30.5906953 L231.890468,30.4764424 C233.647324,30.2943 236.333779,29.1451474 236.295401,28.4397598 C235.75811,29.4431985 234.632358,28.4563182 233.685702,28.2774875 C234.410619,28.0820984 235.951421,27.529048 234.770234,27.4147951 C234.35092,27.8155083 231.141388,28.3851171 233.418478,28.777551 C232.453344,29.0391737 231.157023,29.5293022 230.062542,29.2478094 C231.350334,28.7576809 230.503177,28.4149222 230.862793,27.7443072 C229.718562,28.3354419 229.755518,29.0408295 229.570736,29.3769649 C226.297241,28.5357985 224.969649,26.7392126 221.282525,27.4412885 C220.797826,27.5687882 223.518395,27.1283349 223.167308,27.7956382 C220.473746,28.9447908 219.662124,26.5852195 217.328177,27.065413 L217.983445,28.1814488 C217.258528,28.3735262 215.495987,28.5573244 214.626087,28.6517072 C214.404348,28.2774875 211.912625,27.5124896 213.760452,27.1631075 C209.753512,26.5140184 210.215468,29.5442047 205.624331,29.1931667 C207.74791,29.4845945 207.992391,29.4200167 209.662542,29.4051142 C208.529682,29.799204 208.725836,29.8952427 208.968896,30.108846 C208.49699,30.1436186 208.04214,30.2065405 207.605769,30.3009234 C206.451589,30.2131639 205.467977,30.284365 207.022993,29.6783277 C205.600167,29.6303084 202.750251,29.5326138 202.090719,29.9962489 L203.337291,30.3804037 C201.840552,30.3638453 200.367977,30.7231624 199.347408,31.2248818 C199.262124,31.2050117 199.191054,31.2033559 199.104348,31.1785183 C198.486037,30.335696 197.473997,29.9035219 196.297074,29.6700485 C197.128595,29.6717044 198.099415,29.7313146 198.933779,29.6981978 C197.718478,29.272647 198.422074,28.9149857 199.307609,28.5291751 C199.466806,28.49937 199.573411,28.4430714 199.648746,28.3784937 C199.751087,28.3321302 199.847742,28.2874225 199.948662,28.241059 L199.719816,28.2427149 C199.735452,28.1317736 199.685702,28.0009623 199.519398,27.8188199 C197.917475,28.1036243 196.693645,27.2856396 195.661706,27.2740487 C196.680853,28.8653105 192.149415,27.6416451 190.853094,28.1317736 L189.356355,28.2874225 L188.796321,28.2907342 C188.68403,28.1152152 188.843227,27.8983002 189.69607,27.5820349 C188.983946,27.8966444 186.607358,27.787359 186.826254,28.2973576 L181.402174,28.3205393 C181.234448,28.2559616 181.065301,28.1748254 180.940217,28.0605725 C180.752592,28.1599229 180.7199,28.2427149 180.745485,28.3221952 L157.113211,28.4248572 C158.278763,28.550701 159.28796,28.9133299 160.489047,29.0905047 C158.685284,30.1469303 162.460535,29.2809262 161.931773,30.2793974 C161.120151,30.6420263 159.933278,30.5294292 159.226839,30.2860208 C158.999415,30.7198508 159.71296,31.1139406 159.840886,31.5991015 L159.049164,32.5363067 C156.8801,30.8490062 153.777174,32.2200413 150.681355,31.6901727 C152.713963,31.6404975 154.773579,31.501407 156.968227,31.0377719 C153.13612,30.057515 159.479849,30.2214431 158.27592,28.9679726 L156.190719,29.3835883 L156.368395,29.045797 L153.82408,29.1550824 C154.345736,29.7329704 154.738043,29.7693989 154.624331,30.3737803 C151.228595,30.1386511 153.554013,29.6568018 151.063712,28.8934598 L147.26714,29.0027452 L147.574164,28.8206028 C147.254348,28.8355054 147.113629,28.9100182 147.004181,29.0093685 L134.214381,29.3852441 C131.88612,29.8670934 135.500753,30.4747865 133.783696,31.3639723 C136.158863,31.3623165 139.54607,31.8590683 140.479933,31.1553365 L140.919147,32.347541 L138.899331,32.047834 L139.440886,31.7100428 C130.667977,35.6294149 126.703679,30.0277098 118.465217,33.6076349 C119.558278,31.6802377 116.841973,34.6193528 116.733946,32.5131249 C116.490886,32.203483 116.25209,31.9799446 116.016137,31.8176723 C116.058779,31.8060815 116.112793,31.7961464 116.142642,31.7878672 L116.335953,29.8687493 C114.613211,30.1982613 114.597575,31.0675771 115.420569,31.5444588 C115.112124,31.4666344 114.809365,31.4782253 114.512291,31.5676406 C114.226589,31.3291997 114.267809,30.9781617 113.535786,31.625595 C113.544314,31.7663413 113.646656,31.8507891 113.787375,31.913711 C112.883361,32.4800082 112.024833,33.4420509 111.18194,33.791433 C111.18194,33.8940951 111.160619,34.0149714 111.063963,34.1788995 L108.08612,33.925556 C109.864298,31.2629661 105.941221,36.1344459 107.574415,33.8692575 C99.8107023,31.8772826 89.6789298,33.9073418 80.6899666,32.9883509 L81.0851171,33.6722126 C78.8051839,33.5414013 75.970903,34.3726327 74.2410535,33.2797786 C72.5097826,32.1869246 70.4572742,35.0167543 69.7863712,35.1260397 C67.8902174,36.3049974 66.1660535,33.9619845 66.9805184,34.0828608 C64.9535953,34.4090612 63.0474916,36.8414894 60.2345318,35.7966547 C59.2722408,33.5397454 52.5603679,38.0121679 52.476505,35.4687985 L52.4452341,35.6824018 C48.8433946,33.8924392 45.4448161,36.9391839 41.5643813,35.3181171 C41.5643813,35.3181171 41.6382943,35.1310072 41.7690635,34.9587999 L35.170903,41.4082948 C33.955602,40.9993024 32.5796823,40.4628104 31.0033445,39.7491436 L31.0033445,39.5504428 C30.5797659,39.5835596 30.5826087,39.9842728 29.7397157,39.4510925 L31.8448161,40.6780695 C30.5826087,41.1814447 29.4810201,42.13852 27.7994983,42.2742988 C27.4427258,42.0524163 27.3204849,41.6417681 27.2863712,41.3205353 L23.1614548,41.6566707 L21.8978261,40.3618042 C20.6370401,41.0638801 21.212709,43.7943595 17.8397157,42.272643 C19.1118729,44.1685792 16.1667224,43.4102047 16.583194,44.3739033 C16.4140468,44.1404299 16.0260033,43.789392 15.7161371,43.4665033 C13.7105351,43.6850741 9.93386288,44.2165986 9,45.1902322 C9,45.1902322 16.8461538,49.1791496 18.9555184,51.2058971 C16.1326087,50.690931 18.2121237,51.4377146 18.767893,52.0752128 L18.9555184,51.6032986 C20.6484114,52.0652778 20.6484114,53.2624498 21.4927258,53.5936177 C21.4927258,53.497579 21.4671405,53.3800144 21.444398,53.2624498 L21.3363712,53.4214104 C21.2553512,53.2111187 21.3036789,53.063749 21.3932274,52.9445286 C21.3733278,52.6895293 21.451505,52.4875169 21.9120401,52.558718 L21.8224916,52.6845618 C22.5303512,52.5106986 23.7499164,52.6978085 24.2801003,52.7822563 L24.2914716,53.7823834 C25.5437291,51.8798238 32.7175585,56.68507 34.4019231,56.7479919 C36.0919732,58.0080858 38.1899666,56.4366941 40.3007525,57.0675689 C43.5216555,57.3755551 42.1258361,58.428669 43.4818562,59.274803 C43.0952341,59.2400304 42.6162207,59.1075632 42.0035953,58.831038 C43.2757525,60.7269743 40.330602,59.9685998 40.7470736,60.9322984 C40.5779264,60.698825 40.1898829,60.347787 39.8800167,60.0248983 C37.8744147,60.2434691 34.0977425,60.7749936 33.1638796,61.7486272 C33.1638796,61.7486272 41.0100334,65.7375446 43.119398,67.7642921 C40.2964883,67.2493261 42.3760033,67.9961097 42.9317726,68.6336079 L43.119398,68.1616936 C44.5990803,68.5657185 44.7852843,69.5310729 45.3737458,69.9880846 C45.2898829,70.0294806 45.2316054,70.0741883 45.2429766,70.1255193 C45.3268395,70.1039934 45.4050167,70.0774999 45.4846154,70.0526623 C45.5400502,70.087435 45.5926421,70.1271751 45.6566054,70.1520127 C45.6566054,70.1106167 45.6438127,70.0576299 45.6367057,70.0112664 C45.9593645,69.9168835 46.3019231,69.8638966 46.9074415,70.1089609 C45.3083612,70.397077 43.6410535,70.4136354 42.0007525,69.9930521 C42.0590301,69.8672083 42.2224916,69.7446762 42.4086957,69.6271116 C40.27801,70.5626609 37.0755853,70.3209083 35.6470736,71.4071391 L36.2795987,71.624054 C36.7941472,71.3226912 37.8388796,71.2895745 38.2539298,71.5677555 C36.6534281,71.8542157 39.3896321,72.5546358 37.6981605,73.0083359 C35.3684783,73.4868735 33.298913,72.3228183 32.0295987,73.5183344 C34.2427258,73.6408665 37.229097,74.2816764 38.1288462,73.7518078 L36.7003344,73.7021326 L39.9624582,72.2565847 C40.0861204,72.7963884 42.8393813,71.9187935 42.7853679,72.789765 C41.6624582,72.945414 40.636204,72.9371348 39.7577759,73.0265501 C39.9681438,73.4007698 42.7626254,73.2285625 43.9438127,73.3411596 L42.4570234,73.0248943 C45.1150502,72.3128833 48.5093645,72.5480125 51.0849498,72.0048971 C49.0594482,72.6904147 53.6619565,72.604311 52.0358696,73.3246012 C51.3749164,73.7882363 50.3074415,73.0729136 50.6130435,73.274926 C50.411204,74.0482031 52.1893813,73.4289191 52.7110368,74.0051512 C52.8773411,73.6971651 53.9277592,73.4752826 54.3612876,73.21366 L55.2823579,74.1425859 C53.087709,74.8181684 51.0522575,75.4506991 49.9094482,75.7570294 L50.5789298,75.2933944 C48.525,76.4160536 46.4511706,75.2503425 44.3389632,76.1014441 C44.4256689,75.9342043 44.6673077,75.8696265 44.2721572,75.8331981 C41.6624582,75.6709258 40.6234114,77.2390058 38.5268395,76.5120922 L38.7883779,76.0120287 C38.6107023,76.0716389 37.3726589,76.483943 37.6185619,77.0386492 C39.3768395,76.8565069 39.7080268,76.6263452 41.2801003,76.7753707 C40.636204,77.2307266 39.2361204,77.6099138 38.2041806,77.6132255 L38.0918896,78.4908205 C36.7671405,79.4180906 35.4182274,78.0586463 34.0991639,78.9826048 L35.6470736,79.5737395 C35.6044314,79.6118238 35.4821906,79.6333497 35.3841137,79.661499 C36.0834448,79.5737395 36.6875418,79.4561749 36.8524247,79.2491949 C39.1835284,78.7706573 40.3803512,80.0274395 40.7570234,80.4993538 C41.8472408,80.7841582 40.3647157,81.6054546 40.4954849,82.1469141 C42.2494983,81.9631159 42.1471572,80.9878264 43.9040134,80.8056841 C44.3659699,80.9215928 44.2067726,81.0987677 43.9992475,81.1948064 L45.1733278,80.7493855 C45.2387124,81.0192874 48.2449833,81.2179881 46.4639632,81.8389279 C46.1981605,81.8140903 45.7077759,81.8389279 45.3268395,81.8008436 C47.7787625,82.4333743 52.0159699,83.1304827 51.8823579,84.1123956 C53.2213211,84.3309664 52.848913,83.8540846 54.9767559,84.1471682 C55.9660535,83.4500598 54.9,82.7330813 57.2254181,82.2545436 L55.3903846,81.9084732 C55.012291,82.0425962 54.6995819,82.2148035 54.2873746,82.3240889 L56.1963211,82.2429528 C54.9895485,82.5674973 55.205602,82.9384054 54.8502508,83.6090204 C51.910786,83.6769098 51.1048495,82.4615236 49.6152174,82.1402907 C50.5277592,81.6120779 52.1012542,81.7644152 51.5127926,80.9166253 C52.9825251,81.6716881 53.1431438,80.1930235 54.8502508,80.8868202 L54.5219064,81.1153261 C55.9063545,80.4596136 56.0968227,81.2676633 57.2410535,80.6732169 C57.1543478,80.8404567 57.3064381,80.9447746 57.4542642,81.0457808 C59.9417224,80.6682494 56.7009197,80.5324706 59.1954849,79.7177975 C61.408612,79.8436413 59.9147157,81.105391 60.5244983,81.5160392 C56.8103679,82.653601 60.5998328,82.9301262 56.5815217,83.860708 C56.5957358,85.0032372 58.173495,85.1539186 60.3212375,85.0098606 C58.9211538,84.5230438 61.2124582,83.3374627 59.3518395,82.5443156 C62.5627926,81.9730509 62.2927258,79.7525702 65.883194,80.7974049 L65.7950669,80.9646447 L67.2704849,80.1400366 L69.3030936,80.5987041 C68.0423077,81.7975319 66.4929766,81.2097089 65.5008361,81.9051615 C67.9755017,83.1056452 68.8226589,80.7262038 71.6754181,80.8255542 C74.0491639,82.1932776 68.7714883,81.6037987 68.7828595,82.7446721 C69.3556856,82.446621 70.9121237,83.0360999 70.7287625,83.3705795 C68.0579431,82.9384054 69.1026756,84.0892138 66.1262542,83.4566831 C67.5775084,83.0692167 65.9045151,83.0841192 66.1760033,82.580744 C65.7524247,82.9814572 62.9650502,83.1553203 60.9964047,82.9648988 C60.5458194,83.8010977 62.7035117,83.6570397 63.9472408,84.0378828 C66.3025084,83.1222035 68.7430602,84.7614847 70.5525084,83.7050591 C73.0954013,83.5974295 70.744398,84.5131087 70.8979097,84.6157708 C73.1806856,85.0098606 71.8872074,83.9203182 72.6149666,83.7249291 C76.0604515,83.0923984 76.4470736,84.7084978 78.9032609,84.768108 C80.9486622,83.643793 85.9264214,84.0329153 89.4117057,84.1041164 C88.9895485,84.499862 89.451505,84.8078482 89.6618729,85.1837237 C91.7385452,83.6206112 90.9908863,84.2564536 93.5863712,83.2728849 L91.3917224,82.7132112 C93.1514214,82.5277572 94.5671405,81.4332473 96.1804348,82.292628 C94.0383779,80.8570151 99.0175585,81.2461374 100.315301,80.7560089 C102.111957,81.2759425 103.915719,80.2211727 104.89791,81.105391 L104.653428,81.1699688 L107.263127,81.332241 L106.947575,82.704932 C108.741388,83.231489 110.945987,82.2114918 110.327676,81.8008436 C112.212458,82.1551933 111.10092,82.3141539 111.375251,82.9566196 C110.31204,83.3821704 108.026421,84.5660956 107.373997,83.4517156 C107.527508,83.5543777 107.92408,83.592462 108.01505,83.4252222 C103.112625,82.797659 106.414548,85.0926526 103.968311,85.4436905 C105.243311,85.5413851 106.195652,86.2053767 107.557358,85.8394362 C108.189883,85.8112869 110.762625,85.2681715 112.060368,84.7780431 C110.277926,85.397327 109.36112,84.7846664 107.962458,84.2978496 C109.149331,84.4121025 109.342642,83.6388255 110.358946,84.087558 L110.027759,84.3210314 L111.322659,83.829247 C111.51597,84.6389525 114.873328,84.1686941 112.907525,85.1224577 C114.667224,84.9403153 113.511622,84.3889208 115.113545,84.1041164 L111.952341,83.8010977 L112.006355,82.9301262 C113.160535,82.3373356 113.437709,82.9798014 114.711288,82.9235028 L114.603261,81.9482133 L116.85903,82.7777889 C116.580435,82.136979 118.313127,82.3886666 118.796405,82.2595112 C120.041555,82.6436659 119.235619,84.1471682 121.35209,83.2944109 L121.198579,83.1917488 C122.411037,82.8672043 123.127425,82.673471 124.861538,82.9301262 C124.769147,83.0957101 124.291555,83.2248656 124.052759,83.2894433 C126.479097,83.787851 130.370903,82.3141539 131.478177,83.7381758 C131.282023,84.5081412 130.269983,84.0610645 130.218813,84.933692 C126.479097,83.787851 127.597742,86.3510906 123.194231,85.6688847 C122.99097,83.7149941 119.478679,86.8064464 118.641472,84.8790493 C120.3699,85.1340485 122.665468,83.9484675 122.358445,83.7414875 C120.767893,83.8524288 118.537709,83.8938248 117.427592,83.6918123 C118.404097,84.3293105 118.089967,85.4072621 117.380686,86.0762212 C119.953428,85.5331059 124.631271,86.8577775 128.27291,87.0316406 L127.863545,85.8543387 C131.009114,85.0098606 127.482609,86.955472 129.937375,87.0167381 L131.021906,86.1523898 L131.176839,86.2567077 L132.977759,85.2002821 C131.705602,85.2516132 132.291221,86.099403 130.891137,85.614242 C129.645987,85.2317431 130.943729,84.7399587 131.29908,84.0709996 C132.150502,84.4187259 135.179515,84.1769733 133.308946,84.9651529 L136.632191,83.7928185 C136.608027,84.2283043 135.88311,84.4236934 135.544816,84.6538551 L137.944147,84.4468752 L137.85602,84.6124591 C139.787709,84.0958372 142.486957,84.0892138 143.962375,83.2612941 C141.858696,82.7248021 143.089632,82.4698028 144.175585,82.1866542 C144.842224,82.2942838 145.498913,82.4184718 146.134281,82.5674973 C146.211037,83.2546707 145.73913,84.1372332 144.283612,84.6124591 C143.608445,83.9319091 141.887124,84.8210949 140.617809,84.8724259 C142.253846,85.294665 142.76413,84.7316795 144.043395,84.675381 C143.139381,85.2035938 145.746237,85.3642102 145.719231,85.8030077 C145.547241,86.1391431 145.011371,87.140926 143.368227,86.7203428 C140.913462,86.6607326 143.110953,85.6423913 142.386037,85.8377803 C141.735033,84.7200887 138.963294,86.0348252 137.475084,85.7169041 C137.318729,85.614242 137.804849,85.4850865 138.046488,85.4205088 C136.767224,85.4751515 134.072241,85.4784632 133.876087,86.2500844 L137.07709,85.6788197 C137.775,85.9205723 136.089214,86.3759282 137.089883,86.8230048 C137.817642,86.6292716 138.690385,86.5365446 139.638462,86.7120636 L139.460786,87.048199 C141.401003,87.6724505 144.435702,87.4373213 146.671572,87.1227118 C147.089465,85.7003457 147.96505,84.7234003 148.816472,83.3821704 C149.359448,83.5941178 149.862625,83.8325587 150.337375,84.0892138 C149.254264,84.4534985 148.812207,85.1555745 149.528595,85.6423913 L150.111371,85.345996 L151.328094,86.1672924 C151.79005,84.5793423 155.376254,85.4817748 157.343478,84.7780431 C155.991722,85.4784632 154.829013,86.9438811 153.087793,85.9785267 L153.275418,86.7915439 C151.764465,86.9074527 150.540635,86.0894679 149.702007,86.8875826 L151.461706,86.7037844 L151.430435,87.140926 C152.678428,87.0862833 154.266137,86.4007658 155.417475,86.8875826 C156.429515,86.3477789 157.379013,85.4883982 160.083946,85.6837873 L159.994398,85.8543387 C161.826589,84.3591157 165.102926,86.7782972 166.488796,86.1209289 C167.289047,84.6174266 163.513796,85.4867424 162.598411,84.8707701 C163.739799,84.2763237 164.959365,85.0976201 163.980017,84.2134018 C166.645151,83.499735 165.57199,85.5082683 167.772324,84.4849595 L166.525753,84.1041164 C167.513629,83.4086638 169.158194,83.829247 170.154599,83.1354503 C170.211455,82.7065878 169.927174,82.6403543 169.452425,82.6784386 C169.931438,82.4615236 170.484365,82.2412969 171.165217,82.0773688 C171.804849,82.1734075 172.502759,82.2479203 173.290217,82.292628 C173.435201,82.2959396 173.540385,82.2595112 173.634197,82.2131477 C173.682525,82.2446086 173.719482,82.2843488 173.763545,82.3191214 L173.290217,82.292628 C173.473579,82.3191214 173.634197,82.3323681 173.786288,82.3373356 C174.804013,83.1122685 175.28587,84.304473 174.862291,85.4966774 L174.390385,85.294665 C173.463629,85.4254763 174.312207,85.665573 174.673244,85.8957347 C174.646237,85.9470657 174.620652,85.9983968 174.589381,86.048072 C173.415301,86.1639807 172.873746,85.6837873 171.910033,85.6721964 C172.212793,85.8791763 172.909281,86.1209289 172.734448,86.4570643 C171.024498,85.7649234 169.338712,86.2153117 167.751003,84.9254128 C168.666388,85.5397292 166.704849,86.4934928 165.974247,86.6888818 L169.237793,87.9655341 C173.38403,87.5697885 175.966722,88.1692024 180.444147,87.5449509 L180.178344,88.0450144 C187.228512,89.5998477 186.031689,85.6208654 192.061288,85.5827811 C192.227592,86.8279724 194.850084,85.4105737 194.622659,86.6176807 C192.801839,86.5332329 193.171405,87.0051472 193.690217,87.5830352 C194.747742,87.1558286 195.435702,86.2567077 197.472575,86.7120636 C196.722074,87.3445943 198.514465,87.8694954 196.51597,88.1129038 C199.277759,88.379494 200.792977,88.2619294 202.204431,87.1707311 C206.710284,86.1043705 203.553344,88.523552 208.029348,87.8993005 L207.371237,88.3662473 L210.157191,88.1923841 L209.241806,87.5764118 L212.536622,86.8395632 C214.562124,86.1540457 211.712207,86.0563512 211.973746,85.5546318 L211.292893,86.4570643 C209.961037,86.2418052 208.080518,87.0266731 207.803344,86.3875191 C209.978094,86.2500844 209.45786,85.5413851 210.323495,85.1820679 L208.249666,85.5496643 L207.574498,84.8707701 C205.514883,84.8492442 203.930017,84.6985628 202.700502,85.4602489 C203.553344,85.8030077 204.089214,84.8012248 204.851087,85.3128792 C203.839047,86.4454734 201.289047,86.5514472 198.807274,86.9306344 C198.743311,86.6607326 197.955853,86.584564 198.289883,86.3544023 C198.339632,86.2500844 198.774582,86.2600194 199.014799,86.3063829 C198.828595,85.8030077 200.213043,85.4784632 197.880518,85.1737887 C198.717726,84.3756741 200.461789,83.0493466 200.400669,82.7777889 C201.759532,82.5575623 203.6699,82.478082 204.760117,82.7595747 L204.673411,82.9268145 C205.624331,83.0178857 207.416722,82.5161663 208.188545,82.7397046 C208.282358,82.8440225 208.381856,82.941717 208.488462,83.0178857 L208.460033,82.9052886 C208.494147,82.9466846 208.542475,82.9764897 208.556689,83.0327882 C209.278763,82.8373992 211.275836,82.5890232 209.241806,82.1320115 L210.647575,81.9349666 C211.661037,82.7165229 211.088211,84.0610645 210.838043,84.8807051 L212.229599,83.4103196 L212.390217,84.3839533 C212.238127,84.4468752 212.070401,84.5114529 211.87709,84.5809982 C211.91689,84.5694073 212.103094,84.541258 212.408696,84.4965503 L212.501087,85.0562241 C212.668813,84.7399587 212.80811,84.5462255 212.931773,84.4220376 C213.116555,84.3955441 213.326923,84.365739 213.555769,84.3359339 C213.660953,84.3872649 213.770401,84.4534985 213.898328,84.5114529 C213.390886,85.1754445 214.316221,85.4519697 215.582692,85.5711902 C215.589799,85.5745019 215.594064,85.5794694 215.601171,85.5827811 L215.61112,85.5745019 C215.896823,85.6009953 216.192475,85.6225212 216.496656,85.6357679 L216.928763,84.8227507 C218.507943,85.2814183 219.451756,86.0099876 221.552592,85.655638 L226.470652,82.6155167 C226.945401,82.5509389 227.4301,82.4863612 227.914799,82.4250951 C227.973077,82.4681469 228.054097,82.4962962 228.133696,82.5277572 L227.987291,83.2381123 L228.426505,82.6155167 C229.282191,82.8042824 230.557191,82.7231462 229.869231,83.4881441 C230.088127,83.8640196 229.363211,84.056097 228.416555,83.8772664 C228.271572,83.7762602 228.506104,83.7133383 228.356856,83.6090204 C228.088211,84.1123956 227.974498,84.7151212 229.125836,85.2615482 C227.948913,85.1506069 227.796823,85.0496007 226.980936,85.4105737 L228.164967,85.5231708 C226.40811,85.7053132 223.723077,86.8561216 223.760033,87.5615093 C224.298746,86.5580705 225.424498,87.5449509 226.371154,87.7237815 C225.644816,87.9175148 224.105435,88.472221 225.285201,88.5864739 C225.705936,88.1841049 228.91689,87.616152 226.638378,87.223718 C227.603512,86.9620954 228.899833,86.470311 229.994314,86.7534596 C228.706522,87.2435881 229.553679,87.5863469 229.194064,88.2569619 C230.338294,87.6658271 230.299916,86.9604395 230.48612,86.6243041 C233.759615,87.4638147 235.087207,89.2604006 238.774331,88.5599805 C239.257609,88.430825 236.538462,88.8729341 236.888127,88.2056308 C239.58311,87.0548224 240.393311,89.4160495 242.728679,88.9342002 L242.07199,87.8198202 C242.796906,87.626087 244.56087,87.4439447 245.429348,87.3495618 C245.651087,87.7237815 248.142809,88.4887794 246.296405,88.8381615 C250.303344,89.4872506 249.839967,86.4570643 254.432525,86.8064464 C252.307525,86.5166745 252.063043,86.5812523 250.394314,86.5961548 C252.175334,85.9768709 250.667224,86.0977471 250.863378,85.3244701 C251.932274,86.0414486 255.383445,85.4072621 253.032441,86.3229413 C254.455268,86.3709607 257.306605,86.4669993 257.966137,86.0050201 L256.719565,85.6208654 C258.057107,85.6341121 259.373328,85.3493077 260.368311,84.9303803 C261.670318,84.9485945 262.976589,84.9105102 264.078177,84.9999255 C264.098077,84.9966139 264.113712,84.9933022 264.132191,84.9899905 C264.771823,85.1472953 265.225251,85.4271321 265.604766,85.6804756 C265.701421,86.6590767 263.030602,86.2252468 261.121656,86.3030712 C262.336957,86.7269661 261.634783,87.0862833 260.749247,87.4704381 C260.59005,87.5002432 260.483445,87.5565417 260.40811,87.6211195 C260.305769,87.667483 260.207692,87.7121907 260.108194,87.76021 L260.33704,87.7585542 C260.319983,87.8678396 260.371154,88.0003067 260.536037,88.1824491 C262.13796,87.8976447 263.363211,88.7156294 264.395151,88.7272203 C263.376003,87.1359585 267.90602,88.3596239 269.203763,87.8694954 L270.700502,87.7121907 L271.260535,87.708879 C271.372826,87.884398 271.213629,88.1029688 270.359365,88.4175783 C271.071488,88.1046246 273.449498,88.21391 273.229181,87.7039115 L278.653261,87.6807297 C278.822408,87.7453074 278.991555,87.8264436 279.116639,87.9406965 C279.304264,87.8396903 279.335535,87.7585542 279.311371,87.677418 L302.943645,87.574756 C301.776672,87.4489122 300.768896,87.0862833 299.566388,86.9107643 C301.371572,85.8543387 297.5949,86.7203428 298.125084,85.7218716 C298.935284,85.3575869 300.122157,85.4718398 300.830017,85.7152482 C301.092977,85.2102172 300.085201,84.7631405 300.201756,84.1604149 C297.22107,83.5262284 296.764799,85.9404424 293.852341,85.572846 C293.967475,84.9684646 294.867224,84.4402518 292.96112,84.5213879 L293.445819,84.3922324 C290.391221,85.067815 291.064967,83.024509 289.143227,84.6820044 L289.192977,83.8093769 C287.808528,84.4667452 285.113545,84.4717127 283.594064,84.592589 L283.685033,84.4236934 C279.423662,85.4221646 281.292809,84.6356409 276.50694,85.0545683 L278.710117,84.036227 C277.059866,83.6156437 276.687458,84.7217445 275.502007,84.6091474 C275.573077,84.4684011 275.405351,84.0031102 275.992391,83.7597018 L270.625167,85.1953146 C269.240719,85.8543387 270.908027,85.8377803 271.122659,86.2086884 C270.609532,86.7749855 268.096488,86.4471293 267.964298,85.9089814 C268.302592,85.6755081 269.665719,85.4519697 268.808612,85.109211 L266.821488,86.5001161 C264.176254,85.6341121 268.831355,84.6720693 270.137625,84.1819408 C269.628763,84.1471682 269.20092,84.1604149 268.801505,84.1918759 C272.522742,83.5311959 275.796237,82.9251586 280.229599,82.385355 C283.170485,84.9717763 287.259866,82.7728214 290.823328,82.6502893 C290.881605,82.7132112 290.976839,82.7794448 291.155936,82.8556134 C291.197157,82.7761331 291.255435,82.7132112 291.308027,82.6453218 C292.078428,82.663536 292.820401,82.787724 293.514047,83.107301 L294.607107,81.8124345 L294.615635,81.8124345 C296.467726,83.2463915 298.997826,82.4615236 301.623161,82.529413 C301.626003,82.5641856 301.641639,82.5906791 301.640217,82.6287634 C302.201672,82.7032762 302.784448,82.7314254 303.370067,82.7397046 C303.94005,82.8688601 304.508612,83.0609375 305.070067,83.3639561 C305.98403,82.7943473 306.464465,82.6155167 306.677676,82.5691532 C306.632191,82.5509389 306.579599,82.5178221 306.527007,82.4681469 C307.284615,82.3323681 308.002425,82.1518816 308.667642,81.9184082 C309.047157,82.0690896 309.29306,82.3489265 309.237625,82.9367495 L308.967559,83.1056452 C308.811204,84.7548613 312.202676,82.3356798 313.392391,83.7630134 L312.739967,81.9978885 L314.759783,82.2959396 L314.219649,82.6353867 C314.670234,82.4333743 315.10092,82.2727579 315.528763,82.1187648 C317.413545,82.3770758 319.170401,82.7645422 319.666472,82.2479203 C320.365803,81.8852914 321.22291,81.5541235 322.131187,81.2312348 C326.33286,81.5408768 329.873579,83.0493466 335.193896,80.7377947 C334.102258,82.663536 336.818562,79.7260767 336.925167,81.8306487 C338.626589,83.9997985 340.121906,82.2363294 341.543311,81.136852 C342.09908,81.1136702 342.666221,81.1004235 343.224833,81.0938002 C343.328595,81.1318845 343.425251,81.1732805 343.504849,81.2246115 C343.48495,81.178248 343.492057,81.1335403 343.523328,81.0904885 C343.800502,81.0888326 344.073411,81.0904885 344.337793,81.0921443 C344.342057,80.9927939 344.239716,80.9215928 344.098997,80.8619826 L344.064883,80.8023724 C344.064883,80.8023724 344.029348,80.8139633 343.999498,80.8238983 C343.979599,80.817275 343.958278,80.8106516 343.936957,80.8040282 C343.668311,80.5738666 343.401087,80.466237 343.132441,80.4463669 C343.133863,80.3867567 343.183612,80.3188673 343.328595,80.2294519 L345.494816,80.4115943 C345.393896,80.5059771 345.344147,80.6136067 345.36689,80.7377947 C344.926254,81.4282797 345.112458,81.2908451 345.455017,80.9364954 C345.929766,80.8553593 346.447157,80.7659439 346.980184,80.6732169 C354.618813,82.3075305 364.3199,80.4728603 372.969147,81.3570786 L372.575418,80.6715611 C374.85393,80.8023724 377.689632,79.971141 379.419482,81.0656509 C381.150753,82.1568491 383.201839,79.3270194 383.874164,79.217734 C385.768896,78.0387763 387.494482,80.383445 386.680017,80.2625687 C387.879682,80.0688355 389.039548,79.1498446 390.36714,78.6381902 C390.662793,78.7193263 390.957023,78.8004624 391.252676,78.908092 C391.959114,79.9314008 397.077592,79.837018 401.10301,79.4363048 L401.066054,79.6879924 C401.095903,79.5919537 401.105853,79.5157851 401.124331,79.434649 C401.819398,79.3634479 402.470401,79.2839676 403.071656,79.1995198 C406.008278,79.5306877 408.888043,77.6860825 412.096154,79.0273125 C412.096154,79.0273125 412.020819,79.2144223 411.89005,79.3849738 L415.339799,76.0136846 C415.341221,76.0136846 415.342642,76.0136846 415.342642,76.0120287 L415.123746,76.4458587 C415.702258,76.9094937 416.029181,72.4105778 422.432609,77.9063091 L422.432609,78.1066657 C422.654348,78.0718931 422.652926,77.6728357 423.096405,78.2043602 L421.98913,76.9773831 C422.652926,76.4756638 423.23286,75.5169327 424.115552,75.3811539 C424.304599,75.6046922 424.36714,76.0153404 424.38704,76.3365733 L426.554682,76.0004378 L427.218478,77.2953043 C427.880853,76.5932284 427.579515,73.8610932 429.352007,75.3828097 C428.683946,73.4885293 430.231856,74.2469038 430.01296,73.2815494 C430.102508,73.5166786 430.305769,73.8660607 430.469231,74.1906053 C431.522492,73.9703786 433.508194,73.44051 434,72.4668763 C434,72.4668763 432.833027,71.3375938 431.575084,69.9781496 C432.342642,69.7479879 432.979431,69.478086 433.289298,69.1551973 L433.289298,69.1551973 Z" id="Fill-29" transform="translate(221.500000, 58.000000) rotate(-180.000000) translate(-221.500000, -58.000000) "></path>
            </g>
        </g>
    </g>
</svg>